<?xml version="1.0" encoding="UTF-8"?>
<svg width="675px" height="511px" viewBox="0 0 675 511" version="1.1" xmlns="http://www.w3.org/2000/svg" xmlns:xlink="http://www.w3.org/1999/xlink">
    <title>Group</title>
    <g id="Page-1" stroke="none" stroke-width="1" fill="none" fill-rule="evenodd">
        <g id="Group" transform="translate(337.500000, 255.067136) scale(-1, 1) rotate(-180.000000) translate(-337.500000, -255.067136) ">
            <path d="M17.7362773,508.65642 C11.3289311,507.270934 5.75732563,503.945768 2.50722245,499.696946 C0.835740817,497.480169 0.557160545,495.72522 0.557160545,487.9665 C0.557160545,477.898638 1.48576145,475.681861 7.52166735,471.525404 C15.1361948,466.352924 -7.24308708,466.722387 337.17499,466.722387 C681.593066,466.722387 659.213785,466.352924 666.828312,471.525404 C672.864218,475.681861 673.792819,477.898638 673.792819,487.9665 C673.792819,498.219094 672.957078,500.158774 666.271151,504.869426 C658.285184,510.411368 679.178704,510.134271 336.710689,510.041905 C71.3165497,510.041905 22.8435823,509.764808 17.7362773,508.65642 Z" id="Path" fill="#090043" fill-rule="nonzero"></path>
            <path d="M15.4147751,440.490525 C9.37886917,438.550845 5.94304581,436.426434 3.15724309,432.824171 C0.742880726,429.683737 0.557160545,428.944811 0.557160545,420.077703 C0.557160545,411.118229 0.650020636,410.564035 3.25010318,407.238869 C4.82872472,405.114458 7.98596781,402.712949 11.1432109,401.235098 L16.343376,398.833589 L308.481222,398.833589 L600.526207,398.833589 L606.004953,401.604561 C614.362361,405.853383 615.755262,408.531989 615.755262,419.985337 C615.755262,428.390617 615.569542,429.683737 613.43376,432.731805 C612.040858,434.856217 609.162196,437.072994 605.819232,438.735576 L600.433347,441.321816 L309.781263,441.506548 C77.0738754,441.598914 18.386298,441.414182 15.4147751,440.490525 Z" id="Path" fill="#090043" fill-rule="nonzero"></path>
            <path d="M1.11432109,370.754413 C0.371440363,369.553659 0.0928600908,349.417934 0.0928600908,307.94573 C0.0928600908,253.819423 0.278580272,246.891995 1.57862154,245.598875 C2.32150227,244.767583 3.52868345,244.121023 4.085844,244.121023 C7.52166735,244.213389 7.52166735,243.75156 7.33594717,308.869387 L7.0573669,372.047533 L4.55014445,372.32463 C2.87866281,372.509362 1.76434173,372.047533 1.11432109,370.754413 Z" id="Path" fill="#BD5C61" fill-rule="nonzero"></path>
            <path d="M63.8877425,371.862802 C63.5163021,371.585705 63.2377218,343.137066 63.2377218,308.777021 C63.2377218,261.485777 63.5163021,246.060703 64.3520429,245.229412 C65.8378044,243.75156 68.530747,243.843926 69.4593479,245.321778 C69.8307883,245.875972 70.3879488,271.461274 70.6665291,302.12669 L71.1308296,357.915579 L116.353694,301.48013 C141.333058,270.352885 162.319439,244.767583 163.15518,244.39812 C163.89806,244.121023 165.569542,244.305755 166.869583,244.952315 L169.098225,245.968338 L168.912505,308.961752 L168.633925,372.047533 L166.498143,372.32463 C161.483698,373.063556 161.669418,375.003236 161.669418,313.580038 L161.669418,256.775126 L115.239373,314.688427 C77.4453157,361.702573 68.4378869,372.509362 66.6735452,372.509362 C65.466364,372.509362 64.1663227,372.232265 63.8877425,371.862802 Z" id="Path" fill="#BD5C61" fill-rule="nonzero"></path>
            <path d="M211.256707,371.216242 C210.978126,370.477316 210.885266,369.09183 211.070986,368.168173 C211.349567,366.597956 213.021048,366.50559 234.84317,366.228493 L258.243913,366.043762 L258.243913,306.837341 C258.243913,267.859011 258.615353,247.076726 259.172513,245.875972 C260.286835,243.936292 262.886917,243.566829 264.558399,245.229412 C265.394139,246.060703 265.67272,260.839217 265.67272,306.190781 L265.67272,366.043762 L288.980603,366.228493 C309.316962,366.50559 312.474206,366.690322 313.309946,367.983442 C313.867107,368.814733 313.959967,370.200219 313.681387,371.03151 C313.124226,372.416996 308.481222,372.509362 262.422617,372.509362 C219.149814,372.509362 211.721007,372.32463 211.256707,371.216242 Z" id="Path" fill="#BD5C61" fill-rule="nonzero"></path>
            <path d="M382.955014,371.400973 C380.912092,368.722368 329.653322,248.646943 329.931903,247.261458 C330.396203,244.952315 333.182006,243.474463 334.946348,244.582852 C335.689228,245.137046 340.517953,255.112543 345.532398,266.750623 L354.725547,287.994736 L386.483698,287.994736 L418.241849,287.994736 L427.620718,266.288794 C437.185307,244.213389 438.392489,242.366075 441.642592,245.04468 C442.385473,245.69124 443.035493,246.799629 443.035493,247.538555 C443.035493,249.108772 391.312423,369.553659 389.919521,371.400973 C389.362361,371.955167 387.783739,372.509362 386.390838,372.509362 C384.997936,372.509362 383.419315,371.955167 382.955014,371.400973 Z M414.806026,296.584747 C415.270326,295.01453 413.505984,294.922164 386.483698,294.922164 C370.604622,294.922164 357.60421,295.199262 357.60421,295.476359 C357.60421,296.030553 384.255056,358.192676 385.647957,360.778916 C386.390838,362.164402 389.362361,356.068265 400.412712,330.298232 C408.027239,312.656381 414.527445,297.416039 414.806026,296.584747 Z" id="Shape" fill="#BD5C61" fill-rule="nonzero"></path>
            <path d="M486.772596,371.216242 C486.029715,370.38495 485.843995,353.020197 485.936855,307.853364 C486.215435,249.847697 486.308296,245.598875 487.886917,244.675218 C489.001238,243.936292 489.929839,243.936292 491.13702,244.675218 C492.622782,245.598875 492.715642,249.5706 492.994222,301.849593 L493.179942,358.007945 L519.552208,313.764769 C546.667355,268.136108 547.503095,266.935354 551.217499,269.983422 C551.86752,270.537617 564.125052,290.580976 578.332645,314.503695 L604.147751,357.915579 L604.426331,301.572496 C604.612051,247.63092 604.704911,245.137046 606.376393,244.582852 C607.304994,244.305755 608.790755,244.305755 609.626496,244.675218 C611.019397,245.229412 611.112258,250.494257 610.926537,308.684655 L610.647957,372.047533 L607.490714,372.047533 L604.333471,372.047533 L576.846884,325.679946 C561.710689,300.18701 549.081717,279.404725 548.710277,279.497091 C548.338836,279.589456 536.081304,299.817547 521.40941,324.479192 C506.737515,349.140837 494.201403,370.015487 493.365662,370.939145 C491.694181,372.786459 488.258357,372.97119 486.772596,371.216242 Z" id="Path" fill="#BD5C61" fill-rule="nonzero"></path>
            <path d="M667.292612,371.400973 C667.014032,370.754413 666.921172,342.213408 667.014032,307.94573 C667.292612,249.847697 667.385473,245.598875 668.964094,244.675218 C670.078415,243.936292 671.007016,243.936292 672.214197,244.675218 C673.699959,245.598875 673.792819,249.847697 674.071399,307.853364 C674.164259,353.020197 673.978539,370.38495 673.235658,371.216242 C671.935617,372.786459 667.849773,372.878825 667.292612,371.400973 Z" id="Path" fill="#BD5C61" fill-rule="nonzero"></path>
            <path d="M17.6434173,223.800567 C9.28600908,222.415081 2.69294263,217.612064 1.021461,211.700659 C-0.650020636,206.06635 -0.0928600908,197.753436 2.22864218,193.319882 C3.90012381,189.994717 5.38588527,188.609231 9.75030953,186.392454 L15.321915,183.621483 L286.937681,183.344385 C476.929426,183.25202 560.132068,183.436751 563.475031,184.083311 C569.046636,185.284065 575.175402,189.348157 577.218324,193.227517 C579.075526,196.829779 579.168386,209.94571 577.311184,213.455607 C575.268262,217.242601 571.182418,220.752498 566.539414,222.599813 C562.54643,224.17003 549.360297,224.262395 292.137846,224.354761 C143.5617,224.447127 19.9649195,224.17003 17.6434173,223.800567 Z" id="Path" fill="#090043" fill-rule="nonzero"></path>
            <path d="M16.7148163,157.020158 C11.0503508,155.449941 4.45728436,151.478215 2.41436236,148.430147 C0.557160545,145.56681 -0.371440363,137.069164 0.464300454,130.973027 C1.39290136,124.969256 6.22162608,120.350971 14.5790343,117.487634 C20.9863805,115.270856 21.0792406,115.270856 65.5592241,115.270856 C109.296327,115.270856 110.224928,115.270856 115.610813,117.302902 C127.404045,121.736456 130.654148,126.539473 129.725547,138.269918 C128.982666,148.337781 127.311184,150.739289 118.025175,155.265209 L112.91787,157.759084 L66.9521255,157.943815 C32.5010318,158.128546 19.9649195,157.851449 16.7148163,157.020158 Z M72.8951713,151.478215 C80.3239785,147.321758 83.0169212,136.884433 78.8382171,128.663885 C75.8666942,122.844845 71.6879901,120.350971 65.1877837,120.350971 C58.5018572,120.350971 54.0445728,123.121942 51.16591,129.125713 C44.015683,143.904227 59.0590177,159.329301 72.8951713,151.478215 Z" id="Shape" fill="#090043" fill-rule="nonzero"></path>
            <path d="M152.011969,156.743061 C147.090384,154.988112 142.447379,151.385849 140.683038,147.875952 C139.568716,145.751541 139.290136,142.888204 139.568716,135.498947 C139.847297,126.077645 139.847297,125.985279 143.00454,122.752479 C144.676021,120.997531 148.297565,118.596022 150.897648,117.395268 L155.633512,115.270856 L406.820058,115.270856 C641.756087,115.270856 658.285184,115.363222 661.999587,116.841074 C672.585638,121.089896 675.835741,126.724205 674.72142,139.378307 C674.164259,146.767564 673.792819,147.598855 670.821296,150.924021 C668.871234,153.140798 665.713991,155.172844 662.556748,156.373598 C657.449443,158.220912 656.985142,158.220912 406.541478,158.128546 C191.198927,158.128546 155.076352,157.943815 152.011969,156.743061 Z" id="Path" fill="#090043" fill-rule="nonzero"></path>
            <path d="M18.9434585,89.8702859 C8.54312835,87.7458746 1.67148163,82.1115662 0.464300454,74.5375779 C0.185720182,72.2284351 0.0928600908,67.794881 0.371440363,64.8391782 C1.021461,57.8193842 3.80726372,53.9400243 10.9574907,50.4301273 L16.343376,47.8438874 L335.317788,47.5667903 C681.593066,47.3820588 659.213785,47.012596 666.828312,52.1850758 C672.121337,55.7873385 673.699959,58.7430413 674.071399,65.855201 C674.257119,69.4574638 674.168022,73.7986522 673.885679,75.6459664 C672.957078,80.3566177 667.664053,85.7138289 661.442427,88.2077031 L656.149402,90.3321145 L339.496492,90.4244802 C165.290962,90.5168459 21.0792406,90.2397488 18.9434585,89.8702859 Z" id="Path" fill="#090043" fill-rule="nonzero"></path>
            <ellipse id="Oval" fill="#F4B03F" cx="650.831202" cy="419.932864" rx="18.1265985" ry="17.6950128"></ellipse>
            <ellipse id="Oval" fill="#F4B03F" cx="650.831202" cy="205.866368" rx="18.1265985" ry="17.6950128"></ellipse>
            <ellipse id="Oval" fill="#F4B03F" cx="650.831202" cy="17.6950128" rx="18.1265985" ry="17.6950128"></ellipse>
            <ellipse id="Oval" fill="#F4B03F" cx="599.040921" cy="205.003197" rx="18.1265985" ry="17.6950128"></ellipse>
            <ellipse id="Oval" fill="#F4B03F" cx="599.040921" cy="17.6950128" rx="18.1265985" ry="17.6950128"></ellipse>
        </g>
    </g>
</svg>